<svg id="visual" viewBox="0 0 960 540" width="960" height="540" xmlns="http://www.w3.org/2000/svg" xmlns:xlink="http://www.w3.org/1999/xlink" version="1.1"><rect x="0" y="0" width="960" height="540" fill="#001220"></rect><path d="M0 402L22.8 400.2C45.7 398.3 91.3 394.7 137 387.2C182.7 379.7 228.3 368.3 274 355.7C319.7 343 365.3 329 411.2 322.2C457 315.3 503 315.7 548.8 317.2C594.7 318.7 640.3 321.3 686 331.8C731.7 342.3 777.3 360.7 823 368.2C868.7 375.7 914.3 372.3 937.2 370.7L960 369L960 541L937.2 541C914.3 541 868.7 541 823 541C777.3 541 731.7 541 686 541C640.3 541 594.7 541 548.8 541C503 541 457 541 411.2 541C365.3 541 319.7 541 274 541C228.3 541 182.7 541 137 541C91.3 541 45.7 541 22.8 541L0 541Z" fill="#fa7268"></path><path d="M0 369L22.8 378.3C45.7 387.7 91.3 406.3 137 414.2C182.7 422 228.3 419 274 411.7C319.7 404.3 365.3 392.7 411.2 382.5C457 372.3 503 363.7 548.8 369.5C594.7 375.3 640.3 395.7 686 402.7C731.7 409.7 777.3 403.3 823 405.5C868.7 407.7 914.3 418.3 937.2 423.7L960 429L960 541L937.2 541C914.3 541 868.7 541 823 541C777.3 541 731.7 541 686 541C640.3 541 594.7 541 548.8 541C503 541 457 541 411.2 541C365.3 541 319.7 541 274 541C228.3 541 182.7 541 137 541C91.3 541 45.7 541 22.8 541L0 541Z" fill="#ef5f67"></path><path d="M0 396L22.8 404.3C45.7 412.7 91.3 429.3 137 436.3C182.7 443.3 228.3 440.7 274 442.7C319.7 444.7 365.3 451.3 411.2 445.3C457 439.3 503 420.7 548.8 420.3C594.7 420 640.3 438 686 445.3C731.7 452.7 777.3 449.3 823 442.2C868.7 435 914.3 424 937.2 418.5L960 413L960 541L937.2 541C914.3 541 868.7 541 823 541C777.3 541 731.7 541 686 541C640.3 541 594.7 541 548.8 541C503 541 457 541 411.2 541C365.3 541 319.7 541 274 541C228.3 541 182.7 541 137 541C91.3 541 45.7 541 22.8 541L0 541Z" fill="#e34c67"></path><path d="M0 452L22.8 458C45.7 464 91.3 476 137 474.5C182.7 473 228.3 458 274 449.3C319.7 440.7 365.3 438.3 411.2 444.7C457 451 503 466 548.8 473.7C594.7 481.3 640.3 481.7 686 481.2C731.7 480.7 777.3 479.3 823 471C868.7 462.7 914.3 447.3 937.2 439.7L960 432L960 541L937.2 541C914.3 541 868.7 541 823 541C777.3 541 731.7 541 686 541C640.3 541 594.7 541 548.8 541C503 541 457 541 411.2 541C365.3 541 319.7 541 274 541C228.3 541 182.7 541 137 541C91.3 541 45.7 541 22.8 541L0 541Z" fill="#d53867"></path><path d="M0 473L22.8 478.7C45.7 484.3 91.3 495.7 137 500.8C182.7 506 228.3 505 274 505C319.7 505 365.3 506 411.2 504.2C457 502.3 503 497.7 548.8 496.2C594.7 494.7 640.3 496.3 686 493.7C731.7 491 777.3 484 823 485.5C868.7 487 914.3 497 937.2 502L960 507L960 541L937.2 541C914.3 541 868.7 541 823 541C777.3 541 731.7 541 686 541C640.3 541 594.7 541 548.8 541C503 541 457 541 411.2 541C365.3 541 319.7 541 274 541C228.3 541 182.7 541 137 541C91.3 541 45.7 541 22.8 541L0 541Z" fill="#c62368"></path></svg>