<svg id="visual" viewBox="0 0 1080 1920" width="1080" height="1920" xmlns="http://www.w3.org/2000/svg" xmlns:xlink="http://www.w3.org/1999/xlink" version="1.1"><rect x="0" y="0" width="1080" height="1920" fill="#001220"></rect><path d="M0 1393L25.7 1368C51.3 1343 102.7 1293 154.2 1271.7C205.7 1250.3 257.3 1257.7 308.8 1286.8C360.3 1316 411.7 1367 463 1375C514.3 1383 565.7 1348 617 1346.8C668.3 1345.7 719.7 1378.3 771.2 1383C822.7 1387.7 874.3 1364.3 925.8 1344.7C977.3 1325 1028.7 1309 1054.3 1301L1080 1293L1080 1921L1054.3 1921C1028.7 1921 977.3 1921 925.8 1921C874.3 1921 822.7 1921 771.2 1921C719.7 1921 668.3 1921 617 1921C565.7 1921 514.3 1921 463 1921C411.7 1921 360.3 1921 308.8 1921C257.3 1921 205.7 1921 154.2 1921C102.7 1921 51.3 1921 25.7 1921L0 1921Z" fill="#fa7268"></path><path d="M0 1495L25.7 1462.5C51.3 1430 102.7 1365 154.2 1347.2C205.7 1329.3 257.3 1358.7 308.8 1395C360.3 1431.3 411.7 1474.7 463 1455.8C514.3 1437 565.7 1356 617 1337.8C668.3 1319.7 719.7 1364.3 771.2 1394.2C822.7 1424 874.3 1439 925.8 1449.2C977.3 1459.3 1028.7 1464.7 1054.3 1467.3L1080 1470L1080 1921L1054.3 1921C1028.7 1921 977.3 1921 925.8 1921C874.3 1921 822.7 1921 771.2 1921C719.7 1921 668.3 1921 617 1921C565.7 1921 514.3 1921 463 1921C411.7 1921 360.3 1921 308.8 1921C257.3 1921 205.7 1921 154.2 1921C102.7 1921 51.3 1921 25.7 1921L0 1921Z" fill="#ef5f67"></path><path d="M0 1491L25.7 1494C51.3 1497 102.7 1503 154.2 1523.7C205.7 1544.3 257.3 1579.7 308.8 1585C360.3 1590.3 411.7 1565.7 463 1557.3C514.3 1549 565.7 1557 617 1558.8C668.3 1560.7 719.7 1556.3 771.2 1555.2C822.7 1554 874.3 1556 925.8 1551.2C977.3 1546.3 1028.7 1534.7 1054.3 1528.8L1080 1523L1080 1921L1054.3 1921C1028.7 1921 977.3 1921 925.8 1921C874.3 1921 822.7 1921 771.2 1921C719.7 1921 668.3 1921 617 1921C565.7 1921 514.3 1921 463 1921C411.7 1921 360.3 1921 308.8 1921C257.3 1921 205.7 1921 154.2 1921C102.7 1921 51.3 1921 25.7 1921L0 1921Z" fill="#e34c67"></path><path d="M0 1732L25.7 1721.5C51.3 1711 102.7 1690 154.2 1663.8C205.7 1637.7 257.3 1606.3 308.8 1595.5C360.3 1584.7 411.7 1594.3 463 1602.3C514.3 1610.3 565.7 1616.7 617 1633.5C668.3 1650.3 719.7 1677.7 771.2 1666.2C822.7 1654.7 874.3 1604.3 925.8 1591.2C977.3 1578 1028.7 1602 1054.3 1614L1080 1626L1080 1921L1054.3 1921C1028.7 1921 977.3 1921 925.8 1921C874.3 1921 822.7 1921 771.2 1921C719.7 1921 668.3 1921 617 1921C565.7 1921 514.3 1921 463 1921C411.7 1921 360.3 1921 308.8 1921C257.3 1921 205.7 1921 154.2 1921C102.7 1921 51.3 1921 25.7 1921L0 1921Z" fill="#d53867"></path><path d="M0 1714L25.7 1713.7C51.3 1713.3 102.7 1712.7 154.2 1731.7C205.7 1750.7 257.3 1789.3 308.8 1794.8C360.3 1800.3 411.7 1772.7 463 1758.5C514.3 1744.3 565.7 1743.7 617 1758.2C668.3 1772.7 719.7 1802.3 771.2 1806.5C822.7 1810.7 874.3 1789.3 925.8 1790.3C977.3 1791.3 1028.7 1814.7 1054.3 1826.3L1080 1838L1080 1921L1054.3 1921C1028.7 1921 977.3 1921 925.8 1921C874.3 1921 822.7 1921 771.2 1921C719.7 1921 668.3 1921 617 1921C565.7 1921 514.3 1921 463 1921C411.7 1921 360.3 1921 308.8 1921C257.3 1921 205.7 1921 154.2 1921C102.7 1921 51.3 1921 25.7 1921L0 1921Z" fill="#c62368"></path></svg>