<svg id="visual" viewBox="0 0 900 600" width="900" height="600" xmlns="http://www.w3.org/2000/svg" xmlns:xlink="http://www.w3.org/1999/xlink" version="1.1"><path d="M0 205L82 205L82 133L164 133L164 103L245 103L245 133L327 133L327 175L409 175L409 127L491 127L491 247L573 247L573 175L655 175L655 199L736 199L736 181L818 181L818 169L900 169L900 151L900 0L900 0L818 0L818 0L736 0L736 0L655 0L655 0L573 0L573 0L491 0L491 0L409 0L409 0L327 0L327 0L245 0L245 0L164 0L164 0L82 0L82 0L0 0Z" fill="#fa7268"></path><path d="M0 307L82 307L82 265L164 265L164 235L245 235L245 199L327 199L327 283L409 283L409 175L491 175L491 313L573 313L573 277L655 277L655 283L736 283L736 259L818 259L818 217L900 217L900 217L900 149L900 167L818 167L818 179L736 179L736 197L655 197L655 173L573 173L573 245L491 245L491 125L409 125L409 173L327 173L327 131L245 131L245 101L164 101L164 131L82 131L82 203L0 203Z" fill="#ea5e66"></path><path d="M0 523L82 523L82 493L164 493L164 469L245 469L245 421L327 421L327 475L409 475L409 397L491 397L491 409L573 409L573 433L655 433L655 445L736 445L736 493L818 493L818 403L900 403L900 451L900 215L900 215L818 215L818 257L736 257L736 281L655 281L655 275L573 275L573 311L491 311L491 173L409 173L409 281L327 281L327 197L245 197L245 233L164 233L164 263L82 263L82 305L0 305Z" fill="#d84a64"></path><path d="M0 559L82 559L82 559L164 559L164 547L245 547L245 517L327 517L327 541L409 541L409 487L491 487L491 475L573 475L573 517L655 517L655 547L736 547L736 541L818 541L818 475L900 475L900 541L900 449L900 401L818 401L818 491L736 491L736 443L655 443L655 431L573 431L573 407L491 407L491 395L409 395L409 473L327 473L327 419L245 419L245 467L164 467L164 491L82 491L82 521L0 521Z" fill="#c53762"></path><path d="M0 601L82 601L82 601L164 601L164 601L245 601L245 601L327 601L327 601L409 601L409 601L491 601L491 601L573 601L573 601L655 601L655 601L736 601L736 601L818 601L818 601L900 601L900 601L900 539L900 473L818 473L818 539L736 539L736 545L655 545L655 515L573 515L573 473L491 473L491 485L409 485L409 539L327 539L327 515L245 515L245 545L164 545L164 557L82 557L82 557L0 557Z" fill="#b0235f"></path></svg>